<svg xmlns="http://www.w3.org/2000/svg" width="34" height="35" fill="none"><path fill="#3758F9" d="M16.727 34.309c9.238 0 16.728-7.489 16.728-16.727 0-9.239-7.49-16.728-16.728-16.728C7.49.854 0 8.344 0 17.582c0 9.238 7.489 16.727 16.727 16.727Z"/><path fill="#fff" d="M13.47 5.175c.312.122.582.374 1.122.878l11.783 11.015a19.55 19.55 0 0 0-5.814 1.161l-7.817-7.421a.398.398 0 0 0-.66.383l2.547 10.455a19.548 19.548 0 0 0-3.933 4.47L7.07 10.39c-.166-.718-.248-1.077-.196-1.409.045-.293.165-.569.348-.802.208-.264.527-.449 1.166-.818l2.92-1.685c.639-.37.958-.554 1.291-.601.294-.042.593-.008.87.1Z"/><path fill="#C6CDEB" d="M23.699 21.038c-.34.96-1.452 2.125-2.994 3.015-1.893 1.092-3.819 1.419-4.697.87.112.54.378 1.08.57 1.412 0 0 .842 1.687 2.63 2.166a1.231 1.231 0 0 1 .45-1.681c1.01-.583 1.517.298 1.928 1.013l.037.064a3.007 3.007 0 0 0 2.994 1.479 2.522 2.522 0 0 1-.773-.832c-.597-1.034-.212-1.77.235-2.624.355-.68.75-1.436.723-2.477a3.378 3.378 0 0 0-1.103-2.404Z"/></svg>