<svg xmlns="http://www.w3.org/2000/svg" width="132" height="46" fill="none"><g clip-path="url(#a)"><mask id="b" width="132" height="46" x="0" y="0" maskUnits="userSpaceOnUse" style="mask-type:luminance"><path fill="#fff" d="M0 0h131.309v46H0V0Z"/></mask><g mask="url(#b)"><path fill="#fff" d="M54.952 12.044c1.928 0 3.602.318 5.021.953 1.441.636 2.543 1.547 3.306 2.734.762 1.186 1.144 2.595 1.144 4.227 0 1.61-.382 3.019-1.144 4.227-.763 1.186-1.865 2.097-3.306 2.733-1.42.636-3.093.953-5.021.953H49.93v6.42H45.8V12.044h9.152Zm-.19 12.331c1.8 0 3.167-.381 4.099-1.144.932-.763 1.398-1.854 1.398-3.273 0-1.42-.466-2.511-1.398-3.274-.932-.763-2.299-1.144-4.1-1.144h-4.83v8.835h4.831Zm14.205-12.331h4.132v18.751H84.73v3.496H68.967V12.044Zm35.701 17.099H93.544L91.35 34.29h-4.259l10.011-22.247h4.069l10.043 22.247h-4.323l-2.224-5.148.001.001Zm-1.367-3.242-4.195-9.725-4.164 9.725h8.359Zm19.425.54v7.85h-4.132v-7.786l-8.74-14.461h4.418l6.515 10.837 6.579-10.837h4.068l-8.708 14.397ZM16.727 39.309c9.238 0 16.728-7.489 16.728-16.727 0-9.239-7.49-16.728-16.728-16.728C7.49 5.854 0 13.344 0 22.582c0 9.238 7.489 16.727 16.727 16.727Z"/></g></g><path fill="#3758F9" d="M14.47 11.175c.312.122.582.374 1.122.878l11.783 11.015a19.55 19.55 0 0 0-5.814 1.161l-7.817-7.421a.398.398 0 0 0-.66.383l2.547 10.455a19.548 19.548 0 0 0-3.933 4.47L8.07 16.39c-.166-.718-.248-1.077-.196-1.409.045-.293.165-.569.348-.802.208-.264.527-.449 1.166-.818l2.92-1.685c.639-.37.958-.554 1.291-.601.294-.042.593-.008.87.1Z"/><path fill="#1B44C8" d="M23.699 26.038c-.34.96-1.452 2.125-2.994 3.015-1.893 1.092-3.819 1.419-4.697.87.112.54.378 1.08.57 1.412 0 0 .842 1.687 2.63 2.166a1.231 1.231 0 0 1 .45-1.681c1.01-.583 1.517.298 1.928 1.013l.037.064a3.007 3.007 0 0 0 2.994 1.479 2.522 2.522 0 0 1-.773-.832c-.597-1.034-.212-1.77.235-2.624.355-.68.75-1.436.723-2.477a3.378 3.378 0 0 0-1.103-2.404Z"/><defs><clipPath id="a"><path fill="#fff" d="M0 0h132v46H0z"/></clipPath></defs></svg>