<svg xmlns="http://www.w3.org/2000/svg" width="174" height="40" fill="none"><g clip-path="url(#a)"><path fill="url(#b)" d="M36.5 20c0-9.941-8.059-18-18-18S.5 10.059.5 20s8.059 18 18 18 18-8.059 18-18Z"/><path fill="url(#c)" fill-opacity=".56" d="M36.5 20c0-9.941-8.059-18-18-18S.5 10.059.5 20s8.059 18 18 18 18-8.059 18-18Z"/><path fill="#fff" d="M18.787 8.75c2.85 0 5.54 1.053 7.623 2.973a.276.276 0 0 1 .006.398l-4.408 4.408a.295.295 0 0 1-.395.014A4.47 4.47 0 0 0 14.32 20H7.53c0-6.203 5.05-11.25 11.256-11.25ZM14.32 20a4.473 4.473 0 0 0 4.017 4.442c.15.015.27.139.27.29v6.232c0 .157-.13.284-.286.278C12.329 30.996 7.53 26.047 7.53 20h6.789Z"/><path fill="#fff" d="M25.475 20.893H22.82a.281.281 0 0 0-.28.281v2.653a.28.28 0 0 0 .28.281h2.655a.281.281 0 0 0 .28-.281v-2.653a.281.281 0 0 0-.28-.28Z" opacity=".56"/><path fill="#fff" d="M29.047 20.893h-2.655a.281.281 0 0 0-.28.281v2.653a.28.28 0 0 0 .28.281h2.655a.281.281 0 0 0 .281-.281v-2.653a.281.281 0 0 0-.281-.28Z" opacity=".4"/><path fill="#fff" d="M25.475 24.465H22.82a.281.281 0 0 0-.28.281v2.653c0 .155.125.28.28.28h2.655a.281.281 0 0 0 .28-.28v-2.653a.281.281 0 0 0-.28-.281Z" opacity=".72"/><path fill="#fff" d="M21.901 24.465h-2.654a.281.281 0 0 0-.281.281v2.653c0 .155.126.28.281.28h2.654a.281.281 0 0 0 .282-.28v-2.653a.281.281 0 0 0-.282-.281Z" opacity=".88"/><path fill="#fff" d="M29.047 24.465h-2.655a.281.281 0 0 0-.28.281v2.653c0 .155.125.28.28.28h2.655a.281.281 0 0 0 .281-.28v-2.653a.281.281 0 0 0-.281-.281Z" opacity=".56"/><path fill="#fff" d="M25.475 28.035H22.82a.281.281 0 0 0-.28.28v2.653a.28.28 0 0 0 .28.282h2.655a.281.281 0 0 0 .28-.282v-2.652a.281.281 0 0 0-.28-.281Z" opacity=".88"/><path fill="#fff" d="M21.901 28.035h-2.654a.281.281 0 0 0-.281.28v2.653c0 .156.126.282.281.282h2.654a.281.281 0 0 0 .282-.282v-2.652a.281.281 0 0 0-.282-.281Z" opacity=".96"/><path fill="#fff" d="M29.047 28.035h-2.655a.281.281 0 0 0-.28.28v2.653a.28.28 0 0 0 .28.282h2.655a.281.281 0 0 0 .281-.282v-2.652a.281.281 0 0 0-.281-.281Z" opacity=".72"/><path fill="#1E1983" d="M57.442 12.125h2.835v16.254c0 1.04-.242 2.005-.726 2.898a7.49 7.49 0 0 1-1.924 2.347 9.023 9.023 0 0 1-2.767 1.559 9.37 9.37 0 0 1-3.24.567c-1.17 0-2.3-.247-3.392-.74a9.423 9.423 0 0 1-2.869-1.953c-.81-.809-1.395-1.717-1.755-2.725l2.6-1.102a4.749 4.749 0 0 0 1.147 1.953 6.25 6.25 0 0 0 1.957 1.386c.754.346 1.525.52 2.312.52.742 0 1.457-.121 2.143-.363a6.44 6.44 0 0 0 1.873-1.008 4.62 4.62 0 0 0 1.316-1.496c.327-.567.49-1.181.49-1.843v-3.134a6.8 6.8 0 0 1-2.278 2.205c-.934.556-2.025.835-3.274.835a8.738 8.738 0 0 1-3.358-.646 8.722 8.722 0 0 1-2.75-1.78 8.592 8.592 0 0 1-1.857-2.646A7.722 7.722 0 0 1 43.25 20c0-1.145.225-2.215.675-3.213a8.35 8.35 0 0 1 1.856-2.646 8.585 8.585 0 0 1 2.75-1.796 8.738 8.738 0 0 1 3.359-.645c1.249 0 2.34.278 3.274.835a6.607 6.607 0 0 1 2.278 2.204v-2.614Zm-5.535 13.592c1.091 0 2.036-.262 2.835-.787a5.28 5.28 0 0 0 1.873-2.095A6.216 6.216 0 0 0 57.273 20c0-1.05-.225-2.006-.675-2.866a5.167 5.167 0 0 0-1.873-2.08c-.799-.524-1.738-.787-2.818-.787a5.634 5.634 0 0 0-2.903.772 5.816 5.816 0 0 0-2.092 2.079c-.506.86-.76 1.822-.76 2.882s.26 2.026.777 2.898a6.042 6.042 0 0 0 2.092 2.063c.878.504 1.84.756 2.886.756Zm11.077 2.158v-15.75h2.835v1.969a6.36 6.36 0 0 1 2.262-1.748 6.727 6.727 0 0 1 2.97-.662 7.5 7.5 0 0 1 1.89.236l-1.148 2.646a4.746 4.746 0 0 0-1.35-.204c-.844 0-1.62.194-2.329.582a4.479 4.479 0 0 0-1.67 1.544 3.95 3.95 0 0 0-.625 2.173v9.214h-2.835Zm23.391-15.75h2.835v15.75h-2.835l-.118-2.662a6.209 6.209 0 0 1-2.194 2.221c-.922.567-2.025.85-3.308.85a9.3 9.3 0 0 1-3.476-.645 9.495 9.495 0 0 1-2.868-1.811 8.562 8.562 0 0 1-1.924-2.678 7.74 7.74 0 0 1-.692-3.26 7.65 7.65 0 0 1 .675-3.182 8.095 8.095 0 0 1 1.873-2.614 8.854 8.854 0 0 1 2.801-1.764 8.951 8.951 0 0 1 3.409-.646c1.328 0 2.492.294 3.493.882a7.214 7.214 0 0 1 2.43 2.252l-.101-2.693Zm-5.67 13.592c1.114 0 2.076-.252 2.886-.756a5.127 5.127 0 0 0 1.89-2.079c.45-.871.675-1.832.675-2.882 0-1.07-.226-2.037-.675-2.898a5.137 5.137 0 0 0-1.907-2.063c-.81-.515-1.767-.772-2.87-.772-1.113 0-2.125.257-3.037.772a5.966 5.966 0 0 0-2.177 2.079c-.528.86-.793 1.822-.793 2.882s.276 2.027.827 2.898a6.151 6.151 0 0 0 2.194 2.063 6.07 6.07 0 0 0 2.987.756Zm21.56-13.592h3.004L96.038 35.75h-3.004l3.054-7.875-6.058-15.75h3.105l4.37 12.112 4.76-12.112Zm17.343 0h2.835v16.254c0 1.04-.242 2.005-.726 2.898a7.484 7.484 0 0 1-1.924 2.347 9.02 9.02 0 0 1-2.767 1.559 9.37 9.37 0 0 1-3.24.567 8.145 8.145 0 0 1-3.392-.74 9.437 9.437 0 0 1-2.869-1.953c-.81-.809-1.395-1.717-1.755-2.725l2.599-1.102a4.743 4.743 0 0 0 1.148 1.953 6.248 6.248 0 0 0 1.957 1.386 5.49 5.49 0 0 0 2.312.52 6.41 6.41 0 0 0 2.143-.363 6.43 6.43 0 0 0 1.873-1.008 4.613 4.613 0 0 0 1.316-1.496c.327-.567.49-1.181.49-1.843v-3.134a6.801 6.801 0 0 1-2.278 2.205c-.934.556-2.025.835-3.274.835a8.735 8.735 0 0 1-3.358-.646 8.732 8.732 0 0 1-2.751-1.78 8.6 8.6 0 0 1-1.856-2.646 7.722 7.722 0 0 1-.675-3.213c0-1.145.225-2.215.675-3.213a8.357 8.357 0 0 1 1.856-2.646 8.595 8.595 0 0 1 2.751-1.796 8.735 8.735 0 0 1 3.358-.645c1.249 0 2.34.278 3.274.835a6.608 6.608 0 0 1 2.278 2.204v-2.614Zm-5.535 13.592c1.091 0 2.036-.262 2.835-.787a5.281 5.281 0 0 0 1.873-2.095 6.212 6.212 0 0 0 .658-2.835c0-1.05-.225-2.006-.675-2.866a5.169 5.169 0 0 0-1.873-2.08c-.799-.524-1.738-.787-2.818-.787a5.636 5.636 0 0 0-2.903.772 5.814 5.814 0 0 0-2.092 2.079c-.506.86-.76 1.822-.76 2.882s.259 2.026.777 2.898a6.036 6.036 0 0 0 2.092 2.063c.878.504 1.84.756 2.886.756Zm11.077 2.158v-15.75h2.835v1.969a6.363 6.363 0 0 1 2.262-1.748 6.726 6.726 0 0 1 2.97-.662 7.53 7.53 0 0 1 1.89.236l-1.148 2.646a4.743 4.743 0 0 0-1.35-.204c-.844 0-1.62.194-2.329.582a4.48 4.48 0 0 0-1.67 1.544 3.953 3.953 0 0 0-.625 2.173v9.214h-2.835Zm10.68-15.75h2.835v15.75h-2.835v-15.75Zm1.452-2.567c-.45 0-.827-.137-1.131-.41a1.319 1.319 0 0 1-.456-1.023c0-.41.152-.751.456-1.024.304-.273.675-.41 1.114-.41.439 0 .81.137 1.114.41.303.273.455.614.455 1.024 0 .41-.152.75-.455 1.023-.293.273-.659.41-1.097.41Zm17.441-5.308h2.835v23.625h-2.835v-2.677a6.609 6.609 0 0 1-2.312 2.236c-.968.567-2.104.85-3.409.85a9.13 9.13 0 0 1-3.443-.645 9.264 9.264 0 0 1-2.835-1.78 8.554 8.554 0 0 1-1.906-2.646 7.55 7.55 0 0 1-.692-3.213c0-1.145.23-2.215.692-3.213a8.315 8.315 0 0 1 1.906-2.646 9.112 9.112 0 0 1 2.835-1.796 9.13 9.13 0 0 1 3.443-.645c1.305 0 2.441.283 3.409.85a6.609 6.609 0 0 1 2.312 2.237V4.25Zm-5.687 21.467c1.113 0 2.075-.252 2.885-.756a5.117 5.117 0 0 0 1.89-2.079c.45-.871.675-1.832.675-2.882 0-1.071-.225-2.037-.675-2.898a5.132 5.132 0 0 0-1.907-2.063c-.81-.515-1.766-.772-2.868-.772-1.114 0-2.127.257-3.038.772a6.006 6.006 0 0 0-2.16 2.079c-.54.86-.81 1.822-.81 2.882s.276 2.026.827 2.898a6.152 6.152 0 0 0 2.194 2.063 6.069 6.069 0 0 0 2.987.756Zm16.367 2.457a9.597 9.597 0 0 1-2.667-.472 8.066 8.066 0 0 1-2.261-1.182c-.641-.504-1.108-1.081-1.401-1.732l2.43-.977c.169.357.473.693.912 1.008a5.57 5.57 0 0 0 1.518.756 5.53 5.53 0 0 0 1.739.284c.618 0 1.198-.09 1.738-.268.54-.178.978-.44 1.316-.787.349-.357.523-.783.523-1.276 0-.525-.191-.935-.574-1.229-.371-.304-.843-.54-1.417-.708a40.705 40.705 0 0 0-1.721-.504 20.23 20.23 0 0 1-3.105-.977c-.912-.388-1.632-.877-2.16-1.465-.518-.598-.777-1.36-.777-2.283 0-.977.287-1.822.861-2.536.585-.714 1.35-1.265 2.295-1.654a7.905 7.905 0 0 1 3.037-.583c1.362 0 2.605.273 3.73.82 1.125.545 1.963 1.286 2.514 2.22l-2.278 1.244a2.769 2.769 0 0 0-.877-.992 4.73 4.73 0 0 0-1.35-.693 5.238 5.238 0 0 0-1.553-.268 5.547 5.547 0 0 0-1.839.237c-.563.178-1.018.451-1.367.819-.338.357-.506.803-.506 1.338 0 .525.18.924.54 1.197.371.273.849.494 1.434.662a59.86 59.86 0 0 1 1.941.551 23.02 23.02 0 0 1 2.868 1.055c.889.4 1.603.898 2.143 1.497.552.598.822 1.338.81 2.22 0 .966-.309 1.812-.928 2.536-.618.714-1.423 1.26-2.413 1.638-.979.378-2.03.546-3.155.504Z"/></g><defs><linearGradient id="b" x1="18.5" x2="18.5" y1="2" y2="38" gradientUnits="userSpaceOnUse"><stop stop-color="#3558EA"/><stop offset="1" stop-color="#00F"/></linearGradient><linearGradient id="c" x1="23.289" x2="7.433" y1="7.229" y2="54.475" gradientUnits="userSpaceOnUse"><stop offset=".216" stop-color="#1E1983" stop-opacity="0"/><stop offset=".447" stop-color="#1E1983" stop-opacity=".19"/><stop offset=".62" stop-color="#1E1983"/></linearGradient><clipPath id="a"><path fill="#fff" d="M.5 0h173v40H.5z"/></clipPath></defs></svg>