<svg xmlns="http://www.w3.org/2000/svg" width="161" height="40" fill="none"><g clip-path="url(#a)"><mask id="b" width="41" height="40" x="0" y="0" maskUnits="userSpaceOnUse" style="mask-type:luminance"><path fill="#fff" d="M40.5 0H.5v40h40V0Z"/></mask><g fill="#3758F9" mask="url(#b)"><path d="M40.436 18.352a.816.816 0 0 0-.8-.736H19.7a3.103 3.103 0 0 0-2.64 1.6 2.8 2.8 0 0 0 0 2.784.864.864 0 0 0 .72.464h21.904a.816.816 0 0 0 .8-.736v-1.6a24 24 0 0 0-.048-1.776Z" opacity=".72"/><path d="M40.42 18.352a.8.8 0 0 0-.784-.736h-3.2a.799.799 0 0 0-.592.272.753.753 0 0 0-.192.608v1.6a15.2 15.2 0 0 1-7.04 12.8c-.224.144-.432.32-.672.448a14.914 14.914 0 0 1-3.744 1.504l2.096 3.728a.8.8 0 0 0 .704.4.72.72 0 0 0 .256 0l.512-.208.464-.192c.708-.294 1.397-.63 2.064-1.008A20.048 20.048 0 0 0 40.5 19.952c0-.592-.032-1.056-.08-1.6Z"/><path d="M29.095 33.539a.864.864 0 0 0-.48-.384h-.224a.911.911 0 0 0-.4.096 15.04 15.04 0 0 1-7.488 1.968 15.232 15.232 0 0 1-15.2-15.2 15.232 15.232 0 0 1 15.2-15.2c2.623 0 5.202.678 7.488 1.968a.72.72 0 0 0 .4.112h.176a.816.816 0 0 0 .528-.384l1.6-2.784a.816.816 0 0 0-.288-1.104A20.031 20.031 0 0 0 20.535.035a20.032 20.032 0 0 0-20 20 20.032 20.032 0 0 0 20 20c3.459.003 6.86-.89 9.872-2.592a.784.784 0 0 0 .288-1.088l-1.6-2.816Z"/><path d="M22.788 22.4h-5.056a.895.895 0 0 1-.704-.432l9.296 16.464a.8.8 0 0 0 .704.4c.09.015.182.015.272 0 1.057-.38 2.08-.852 3.056-1.408a.784.784 0 0 0 .288-1.088L22.788 22.4Z" opacity=".56"/></g><path fill="#fff" d="M63.022 13.657v16.95h-2.98v-16.95H55.5v-2.802h12.051v2.802h-4.529Zm14.725 4.49h2.892v12.46h-2.892v-1.304c-1.185 1.109-2.46 1.663-3.825 1.663-1.723 0-3.147-.623-4.273-1.868-1.117-1.27-1.676-2.857-1.676-4.759 0-1.868.559-3.424 1.676-4.67 1.117-1.245 2.516-1.867 4.196-1.867 1.45 0 2.75.597 3.902 1.79v-1.445Zm-6.831 6.192c0 1.194.32 2.166.96 2.917.656.759 1.483 1.139 2.481 1.139 1.066 0 1.928-.367 2.584-1.1.657-.76.985-1.724.985-2.892s-.328-2.132-.985-2.891c-.656-.742-1.51-1.113-2.558-1.113-.99 0-1.817.375-2.482 1.126-.657.759-.985 1.697-.985 2.814Zm16.234-6.192v12.46h-2.878v-12.46h2.878Zm-3.313-5.181c0-.503.183-.938.55-1.305.367-.367.806-.55 1.318-.55.52 0 .963.183 1.33.55.367.358.55.797.55 1.318 0 .52-.183.963-.55 1.33a1.77 1.77 0 0 1-1.317.55c-.52 0-.964-.183-1.331-.55a1.828 1.828 0 0 1-.55-1.343ZM93.675 9v21.608h-2.879V9h2.879Zm14.354 11.322h8.162v.652c0 1.484-.175 2.798-.525 3.94-.341 1.058-.917 2.048-1.727 2.969-1.833 2.064-4.166 3.096-6.998 3.096-2.763 0-5.13-.998-7.1-2.994-1.97-2.004-2.955-4.41-2.955-7.215 0-2.866 1.002-5.297 3.006-7.292 2.005-2.005 4.444-3.007 7.318-3.007 1.544 0 2.985.316 4.324.947 1.279.631 2.537 1.655 3.774 3.07l-2.124 2.034c-1.62-2.157-3.594-3.236-5.923-3.236-2.089 0-3.842.72-5.258 2.162-1.416 1.415-2.124 3.19-2.124 5.322 0 2.2.789 4.012 2.367 5.437 1.476 1.322 3.075 1.983 4.798 1.983 1.467 0 2.784-.495 3.953-1.484 1.168-.998 1.821-2.192 1.957-3.582h-4.925v-2.802Zm11.373-2.175h2.878v1.113c.529-.554.998-.934 1.408-1.138.418-.214.912-.32 1.484-.32.759 0 1.552.247 2.379.742l-1.318 2.635c-.545-.392-1.078-.588-1.599-.588-1.569 0-2.354 1.185-2.354 3.556v6.46h-2.878v-12.46Zm13.087 0v12.46h-2.878v-12.46h2.878Zm-3.313-5.181c0-.503.183-.938.55-1.305.367-.367.806-.55 1.318-.55.52 0 .963.183 1.33.55.367.358.55.797.55 1.318 0 .52-.183.963-.55 1.33a1.77 1.77 0 0 1-1.317.55c-.521 0-.964-.183-1.331-.55a1.826 1.826 0 0 1-.55-1.343ZM145.321 9h2.891v21.608h-2.891v-1.305c-1.134 1.108-2.418 1.663-3.851 1.663-1.706 0-3.121-.623-4.247-1.868-1.117-1.27-1.676-2.857-1.676-4.759 0-1.86.559-3.412 1.676-4.657 1.109-1.253 2.503-1.88 4.183-1.88 1.459 0 2.764.597 3.915 1.79V9Zm-6.832 15.339c0 1.194.32 2.166.96 2.917.657.759 1.484 1.139 2.482 1.139 1.066 0 1.927-.367 2.584-1.1.657-.76.985-1.724.985-2.892s-.328-2.132-.985-2.891c-.657-.742-1.51-1.113-2.559-1.113-.989 0-1.816.375-2.482 1.125-.656.76-.985 1.698-.985 2.815Zm20.597-4.069-2.379 1.267c-.375-.767-.84-1.151-1.395-1.151-.264 0-.49.09-.678.269a.859.859 0 0 0-.281.665c0 .477.554.95 1.663 1.42 1.527.657 2.554 1.262 3.083 1.817.529.554.793 1.3.793 2.238 0 1.203-.443 2.21-1.33 3.02-.862.767-1.902 1.151-3.122 1.151-2.089 0-3.569-1.02-4.439-3.058l2.456-1.138c.342.597.602.976.781 1.138.349.325.767.487 1.253.487.973 0 1.459-.444 1.459-1.33 0-.513-.375-.99-1.126-1.434a43.3 43.3 0 0 0-.87-.422 84.33 84.33 0 0 1-.883-.422c-.835-.41-1.424-.819-1.765-1.228-.435-.52-.652-1.19-.652-2.009 0-1.083.371-1.979 1.113-2.686.759-.708 1.68-1.062 2.763-1.062 1.595 0 2.78.823 3.556 2.469Z"/></g><defs><clipPath id="a"><path fill="#fff" d="M.5 0h160v40H.5z"/></clipPath></defs></svg>