<svg xmlns="http://www.w3.org/2000/svg" width="163" height="40" fill="none"><g clip-path="url(#a)"><path fill="#625DF5" d="M32.957 14.998V26.94a7.054 7.054 0 0 1-3.299 5.972l-9.603 6.04a.309.309 0 0 1-.473-.259v-4.227c0-.694.345-1.34.922-1.726l6.125-4.086A3.079 3.079 0 0 0 28 26.1v-8.232c0-.658.35-1.266.922-1.598l3.115-1.793a.616.616 0 0 1 .921.534v-.012Z"/><path fill="#625DF5" d="m32.214 11.423-13.565 7.833a3.063 3.063 0 0 0-1.536 2.66v16.502c0 .24-.258.388-.461.265l-12.57-7.311A7.195 7.195 0 0 1 .5 25.148v-9.99A8.422 8.422 0 0 1 4.715 7.86l11.44-6.61a1.831 1.831 0 0 1 1.842 0L20.86 2.9a.923.923 0 0 1 0 1.598L7.203 12.38a3.063 3.063 0 0 0-1.536 2.66v9.499c0 1.1.584 2.113 1.536 2.66l4.528 2.611a.142.142 0 0 0 .215-.123V20.25c0-1.916 1.02-3.68 2.678-4.638l13.123-7.575a1.837 1.837 0 0 1 1.96.073l2.562 1.751a.923.923 0 0 1-.061 1.56h.006Z"/><path fill="#fff" d="M47.732 9.717h4.381v11.899c0 .977.134 1.847.4 2.612a5.054 5.054 0 0 0 1.19 1.921c.534.525 1.192.926 1.976 1.202.783.268 1.695.401 2.736.401 1.032 0 1.94-.133 2.723-.4.792-.277 1.45-.678 1.976-1.203a4.973 4.973 0 0 0 1.202-1.921c.267-.765.401-1.635.401-2.612v-11.9h4.381v12.425c0 1.42-.24 2.709-.719 3.87a8.217 8.217 0 0 1-2.086 2.985c-.913.83-2.032 1.47-3.359 1.921-1.317.451-2.824.677-4.519.677-1.695 0-3.206-.226-4.533-.677-1.317-.452-2.432-1.092-3.344-1.921a8.216 8.216 0 0 1-2.087-2.985c-.48-1.161-.719-2.45-.719-3.87V9.717Zm24.393 0h4.408v21.6h-4.408v-21.6Zm6.468 13.516c0-1.3.244-2.47.732-3.51a7.861 7.861 0 0 1 2.018-2.681c.866-.747 1.888-1.318 3.068-1.714 1.188-.405 2.474-.608 3.856-.608.59 0 1.17.037 1.74.11.581.074 1.134.175 1.66.304.534.13 1.031.286 1.492.47.47.175.884.369 1.244.58V8.39h4.09v22.928h-4.09v-1.534c-.36.248-.783.483-1.272.705-.488.22-1.013.414-1.575.58-.562.166-1.147.295-1.755.387-.6.101-1.194.152-1.783.152-1.382 0-2.654-.203-3.814-.608-1.152-.405-2.143-.977-2.972-1.714a7.91 7.91 0 0 1-1.948-2.64c-.461-1.031-.692-2.17-.692-3.413Zm4.298 0c0 .654.128 1.271.386 1.852.268.58.645 1.092 1.134 1.534a5.743 5.743 0 0 0 1.783 1.036c.7.25 1.483.374 2.349.374.553 0 1.106-.051 1.658-.152a9.869 9.869 0 0 0 1.59-.456 8.007 8.007 0 0 0 1.437-.705 5.991 5.991 0 0 0 1.175-.926v-5.653a7.388 7.388 0 0 0-1.313-.843c-.46-.23-.93-.419-1.41-.566a8.883 8.883 0 0 0-1.45-.318 9.536 9.536 0 0 0-1.424-.11c-.94 0-1.779.128-2.516.386-.728.249-1.345.594-1.852 1.037-.497.442-.88.963-1.147 1.561a4.73 4.73 0 0 0-.4 1.949Zm18.076-.124c0-1.106.226-2.161.678-3.165a8.024 8.024 0 0 1 1.948-2.681c.848-.774 1.884-1.392 3.11-1.852 1.234-.46 2.635-.691 4.201-.691 1.557 0 2.958.235 4.201.705 1.253.46 2.313 1.096 3.179 1.907a8.18 8.18 0 0 1 2.004 2.86 8.85 8.85 0 0 1 .705 3.525c0 .156-.005.327-.014.511 0 .175-.009.336-.028.484h-15.423c.175.488.456.935.843 1.34.396.406.889.756 1.479 1.05a8.572 8.572 0 0 0 2.045.692 13.04 13.04 0 0 0 2.571.235c.939 0 1.875-.097 2.805-.29.931-.203 1.82-.457 2.667-.76l1.382 3.123c-.534.248-1.077.47-1.63.663a15.52 15.52 0 0 1-1.714.47c-.59.12-1.212.212-1.866.276-.645.065-1.326.097-2.045.097-1.834 0-3.441-.221-4.823-.663-1.382-.443-2.539-1.046-3.469-1.81-.931-.766-1.631-1.664-2.101-2.696a7.94 7.94 0 0 1-.705-3.33Zm15.686-1.59a3.92 3.92 0 0 0-.691-1.257 4.243 4.243 0 0 0-1.147-1.023 5.776 5.776 0 0 0-1.603-.691 7.604 7.604 0 0 0-2.004-.249 7.95 7.95 0 0 0-2.114.263 6.433 6.433 0 0 0-1.673.705c-.479.294-.88.635-1.202 1.022a3.995 3.995 0 0 0-.691 1.23h11.125Zm5.998 1.686c0-1.197.217-2.312.65-3.344a7.556 7.556 0 0 1 1.921-2.695c.847-.765 1.879-1.364 3.095-1.797 1.226-.433 2.622-.65 4.188-.65a17.268 17.268 0 0 1 4.049.485 13.85 13.85 0 0 1 1.811.538 8.39 8.39 0 0 1 1.465.678l-1.894 3.081a13.72 13.72 0 0 0-2.543-.912 10.151 10.151 0 0 0-2.418-.29c-.94 0-1.783.125-2.529.373-.747.24-1.382.58-1.907 1.023a4.413 4.413 0 0 0-1.189 1.548 4.636 4.636 0 0 0-.401 1.935c0 .7.143 1.35.429 1.948.294.59.704 1.101 1.23 1.534.534.424 1.174.76 1.921 1.01.755.239 1.594.359 2.515.359a9.346 9.346 0 0 0 2.861-.429 11.136 11.136 0 0 0 2.515-1.147l1.893 3.082c-.488.295-1.018.571-1.589.83a15.154 15.154 0 0 1-3.883 1.078c-.71.11-1.447.165-2.212.165-1.557 0-2.953-.212-4.187-.636-1.235-.424-2.281-1.009-3.137-1.755a7.788 7.788 0 0 1-1.977-2.667c-.451-1.023-.677-2.138-.677-3.345ZM142.967 8.39h4.091v13.544l7.628-6.924h6.261l-8.527 7.629 9.066 8.679h-6.136l-6.067-5.874-2.225 1.99v3.884h-4.091V8.39Z"/></g><defs><clipPath id="a"><path fill="#fff" d="M.5 0h162v40H.5z"/></clipPath></defs></svg>