<svg xmlns="http://www.w3.org/2000/svg" width="526" height="100" fill="none"><clipPath id="a"><path d="M142 20h100v60.16H142z"/></clipPath><clipPath id="b"><path d="M0 10h100v79.68H0z"/></clipPath><g fill="#fff"><path d="M472.675.027c-.215.02-.898.088-1.513.137-14.188 1.279-27.478 8.934-35.895 20.7-4.687 6.543-7.685 13.964-8.818 21.825-.4 2.744-.449 3.554-.449 7.274s.049 4.531.449 7.275c2.715 18.758 16.063 34.518 34.167 40.358 3.242 1.044 6.659 1.757 10.546 2.187 1.513.166 8.055.166 9.569 0 6.708-.742 12.391-2.402 17.996-5.263.86-.44 1.026-.557.908-.655-.078-.058-3.739-4.97-8.134-10.907l-7.987-10.79-10.009-14.813c-5.507-8.144-10.038-14.803-10.077-14.803-.039-.01-.078 6.572-.098 14.608-.029 14.07-.039 14.637-.214 14.97-.254.478-.45.673-.86.888-.312.156-.586.185-2.06.185h-1.689l-.45-.283a1.83 1.83 0 0 1-.654-.713l-.205-.44.02-19.577.029-19.588.303-.381c.156-.205.488-.469.722-.596.401-.195.557-.215 2.246-.215 1.992 0 2.324.079 2.842.645.146.156 5.565 8.32 12.049 18.152 6.484 9.834 15.35 23.26 19.705 29.851l7.91 11.981.4-.263c3.545-2.305 7.294-5.586 10.263-9.003 6.317-7.255 10.389-16.102 11.756-25.535.401-2.744.45-3.554.45-7.275 0-3.72-.049-4.53-.45-7.274C522.729 23.93 509.381 8.17 491.277 2.33c-3.193-1.035-6.591-1.748-10.4-2.177-.937-.098-7.391-.205-8.202-.127zm20.447 30.212c.469.234.85.683.987 1.152.078.254.097 5.683.078 17.918l-.03 17.557-3.095-4.746-3.105-4.745V44.612c0-8.25.039-12.889.097-13.114.157-.546.498-.976.967-1.23.401-.205.547-.224 2.08-.224 1.445 0 1.699.019 2.021.195zM384 49.537c0-6.624-8.296-12.902-21.015-16.795 2.935-12.964 1.631-23.278-4.117-26.58-1.325-.775-2.875-1.142-4.566-1.142v4.546c.937 0 1.691.183 2.323.53 2.772 1.59 3.975 7.644 3.037 15.43-.224 1.916-.591 3.934-1.039 5.993-3.995-.979-8.357-1.733-12.943-2.222-2.752-3.771-5.606-7.195-8.48-10.192 6.645-6.176 12.882-9.56 17.122-9.56V5c-5.605 0-12.943 3.995-20.363 10.925-7.419-6.89-14.757-10.843-20.363-10.843v4.545c4.22 0 10.477 3.363 17.122 9.499a96.351 96.351 0 0 0-8.418 10.17c-4.607.49-8.969 1.244-12.964 2.243a61.873 61.873 0 0 1-1.06-5.911c-.958-7.787.225-13.84 2.976-15.45.612-.368 1.407-.53 2.344-.53V5.101c-1.712 0-3.261.367-4.606 1.141-5.728 3.302-7.012 13.596-4.056 26.519C292.255 36.676 284 42.933 284 49.537c0 6.625 8.296 12.903 21.015 16.796-2.935 12.964-1.631 23.278 4.117 26.58 1.325.774 2.875 1.141 4.587 1.141 5.605 0 12.943-3.995 20.363-10.925 7.419 6.89 14.757 10.844 20.362 10.844 1.713 0 3.262-.367 4.607-1.142 5.728-3.302 7.012-13.595 4.056-26.518C375.745 62.42 384 56.142 384 49.537zm-26.539-13.595c-.754 2.63-1.692 5.34-2.752 8.051a95.91 95.91 0 0 0-2.67-4.892 110.39 110.39 0 0 0-2.935-4.77c2.894.428 5.687.958 8.357 1.61zm-9.335 21.708c-1.59 2.752-3.221 5.36-4.913 7.786-3.037.265-6.115.408-9.213.408-3.078 0-6.156-.143-9.172-.387a112.342 112.342 0 0 1-4.933-7.746 106.163 106.163 0 0 1-4.24-8.113 106.65 106.65 0 0 1 4.219-8.132c1.59-2.752 3.221-5.361 4.913-7.787a106.05 106.05 0 0 1 9.213-.407c3.078 0 6.156.142 9.172.387a112.342 112.342 0 0 1 4.933 7.745 106.18 106.18 0 0 1 4.24 8.113 114.359 114.359 0 0 1-4.219 8.133zm6.583-2.65a87.098 87.098 0 0 1 2.813 8.113 91.462 91.462 0 0 1-8.398 1.63c.999-1.57 1.998-3.18 2.936-4.83A115.66 115.66 0 0 0 354.709 55zm-20.668 21.749a83.895 83.895 0 0 1-5.667-6.523c1.835.082 3.71.143 5.606.143 1.916 0 3.811-.04 5.666-.143a79.506 79.506 0 0 1-5.605 6.523zm-15.165-12.006a91.927 91.927 0 0 1-8.357-1.61c.754-2.63 1.691-5.34 2.751-8.052.836 1.631 1.712 3.262 2.67 4.892s1.937 3.221 2.936 4.77zm15.063-42.417a84.12 84.12 0 0 1 5.666 6.522 126.181 126.181 0 0 0-5.605-.142c-1.916 0-3.812.04-5.667.142a79.72 79.72 0 0 1 5.606-6.522zM318.855 34.33a113.746 113.746 0 0 0-5.585 9.723 87.685 87.685 0 0 1-2.813-8.112 99.052 99.052 0 0 1 8.398-1.61zm-18.447 25.52c-7.215-3.078-11.883-7.113-11.883-10.314s4.668-7.256 11.883-10.314c1.753-.754 3.669-1.426 5.647-2.058 1.161 3.995 2.69 8.153 4.586 12.413-1.875 4.24-3.384 8.378-4.525 12.352a62 62 0 0 1-5.708-2.079zm10.967 29.128c-2.772-1.59-3.975-7.644-3.037-15.43.224-1.916.591-3.934 1.039-5.993 3.995.978 8.357 1.733 12.943 2.222 2.752 3.77 5.606 7.195 8.48 10.191-6.645 6.177-12.882 9.56-17.122 9.56-.917-.02-1.692-.204-2.303-.55zm48.349-15.532c.958 7.786-.225 13.84-2.976 15.45-.612.367-1.407.53-2.344.53-4.22 0-10.477-3.363-17.122-9.498a96.363 96.363 0 0 0 8.418-10.172c4.607-.489 8.969-1.243 12.964-2.242.468 2.059.835 4.036 1.06 5.932zm7.847-13.596c-1.753.754-3.669 1.427-5.646 2.059-1.162-3.995-2.691-8.153-4.586-12.413 1.875-4.24 3.383-8.378 4.525-12.353a64.68 64.68 0 0 1 5.728 2.08c7.215 3.077 11.883 7.113 11.883 10.313-.02 3.2-4.688 7.257-11.904 10.314z"/><path d="M333.98 58.857c5.145 0 9.315-4.17 9.315-9.315s-4.17-9.315-9.315-9.315a9.315 9.315 0 0 0 0 18.63z"/></g><g clip-path="url(#a)"><path fill="#fff" d="M192 20.078c-13.333 0-21.667 6.667-25 20 5-6.667 10.833-9.167 17.5-7.5 3.804.95 6.522 3.71 9.532 6.765 4.902 4.976 10.575 10.735 22.968 10.735 13.333 0 21.667-6.667 25-20-5 6.667-10.833 9.167-17.5 7.5-3.804-.95-6.522-3.71-9.532-6.765-4.902-4.976-10.575-10.735-22.968-10.735zm-25 30c-13.333 0-21.667 6.667-25 20 5-6.667 10.833-9.167 17.5-7.5 3.804.95 6.522 3.71 9.532 6.765 4.902 4.976 10.575 10.735 22.968 10.735 13.333 0 21.667-6.667 25-20-5 6.667-10.833 9.167-17.5 7.5-3.804-.95-6.522-3.71-9.532-6.765-4.902-4.976-10.575-10.735-22.968-10.735z"/></g><g clip-path="url(#b)"><path fill="#fff" fill-rule="evenodd" d="M20.77 10.008c-5.706 0-9.928 4.994-9.739 10.41.182 5.203-.054 11.942-1.75 17.438C7.578 43.367 4.7 46.86 0 47.308v5.06c4.7.45 7.578 3.94 9.28 9.452 1.697 5.496 1.933 12.235 1.751 17.439-.189 5.415 4.033 10.41 9.74 10.41h58.466c5.706 0 9.928-4.994 9.738-10.41-.181-5.204.055-11.943 1.751-17.438 1.703-5.512 4.573-9.004 9.274-9.452v-5.061c-4.7-.45-7.571-3.94-9.274-9.452-1.696-5.495-1.932-12.235-1.75-17.438.189-5.415-4.033-10.41-9.739-10.41H20.77zm47.027 49.036c0 7.458-5.563 11.98-14.794 11.98H37.287a1.695 1.695 0 0 1-1.695-1.694V30.347a1.695 1.695 0 0 1 1.695-1.695h15.625c7.698 0 12.75 4.17 12.75 10.571 0 4.493-3.4 8.516-7.729 9.22v.235c5.894.646 9.863 4.728 9.863 10.366zm-16.508-25.02h-8.96v12.657h7.547c5.834 0 9.05-2.35 9.05-6.548 0-3.935-2.766-6.108-7.637-6.108zm-8.96 17.679V65.65h9.29c6.074 0 9.291-2.437 9.291-7.018 0-4.58-3.307-6.93-9.682-6.93h-8.9z" clip-rule="evenodd"/></g></svg>