<svg xmlns="http://www.w3.org/2000/svg" width="127" height="33" fill="none"><clipPath id="a"><path d="M0 0h127v32.564H0z"/></clipPath><g clip-path="url(#a)"><g fill="#542ded"><path d="M12.93 24.423a2.713 2.713 0 1 0 0 5.427 2.713 2.713 0 0 0 0-5.427zm10.869 0a2.713 2.713 0 1 0 0 5.426 2.713 2.713 0 0 0 0-5.426z" opacity=".64"/><path d="M26.458 5.427H8.738a.679.679 0 0 0-.448.19l2.714 11.832c0 .095 0 .176.095.271a3.353 3.353 0 0 0 2.605 1.221H23.8a6.118 6.118 0 0 0 6.052-6.065v-4.07a3.392 3.392 0 0 0-3.393-3.379z"/><path d="M24.613 22.781h-9.226A6.27 6.27 0 0 1 9.24 17.87L6.526 5.889A1.845 1.845 0 0 0 4.762 4.45h-1.18a.868.868 0 0 1 0-1.736h1.18a3.569 3.569 0 0 1 3.501 2.795l2.714 11.98a4.545 4.545 0 0 0 4.45 3.556h9.227a.868.868 0 1 1 0 1.736z" opacity=".8"/></g><path fill="#fff" d="M46.909 14.817c-1.108 0-1.992-.342-2.654-1.026-.663-.695-1.026-1.64-1.091-2.833l-.017-.554.017-.537c.065-1.172.428-2.106 1.09-2.8.663-.695 1.547-1.043 2.655-1.043 1.194 0 2.116.38 2.768 1.14.662.76.993 1.791.993 3.094v.293a.38.38 0 0 1-.114.277.352.352 0 0 1-.26.097h-5.65v.147c.032.705.25 1.308.65 1.807.402.5.934.75 1.596.75.51 0 .923-.099 1.238-.294.325-.206.57-.418.732-.635.098-.13.174-.206.228-.228a.581.581 0 0 1 .277-.049h.717c.097 0 .179.027.244.082a.25.25 0 0 1 .114.211c0 .24-.147.527-.44.863s-.71.63-1.254.88c-.531.238-1.145.358-1.84.358zm2.28-4.999V9.77c0-.76-.207-1.378-.62-1.856-.412-.477-.966-.716-1.66-.716-.706 0-1.26.239-1.661.716-.402.478-.603 1.096-.603 1.856v.05zm6.196 4.999c-1.161 0-2.068-.326-2.72-.977-.65-.662-.992-1.585-1.025-2.768l-.016-.651.016-.652c.033-1.183.375-2.1 1.026-2.751.651-.663 1.558-.994 2.719-.994.781 0 1.438.142 1.97.424.543.271.945.613 1.205 1.026.271.412.418.824.44 1.237.01.098-.028.185-.114.26a.359.359 0 0 1-.26.114h-.717c-.109 0-.19-.021-.244-.065a.88.88 0 0 1-.163-.276c-.196-.532-.467-.907-.814-1.124-.337-.228-.766-.342-1.287-.342-.684 0-1.226.212-1.628.635-.402.423-.619 1.07-.651 1.938l-.017.57.017.57c.032.868.25 1.514.651 1.937s.944.635 1.628.635c.532 0 .966-.109 1.303-.326.336-.228.602-.608.798-1.14.054-.13.108-.216.163-.26.054-.054.135-.081.244-.081h.716c.098 0 .185.038.26.114.087.076.125.163.115.26-.022.402-.169.809-.44 1.221-.26.413-.662.76-1.205 1.042-.532.283-1.188.424-1.97.424zm8.35 0c-1.195 0-2.117-.337-2.769-1.01-.64-.673-.982-1.568-1.025-2.686l-.017-.7.017-.7c.043-1.119.39-2.014 1.042-2.687.662-.673 1.58-1.01 2.752-1.01s2.084.337 2.735 1.01c.662.673 1.015 1.568 1.058 2.686a7.736 7.736 0 0 1 0 1.4c-.043 1.119-.39 2.014-1.042 2.687-.64.673-1.558 1.01-2.752 1.01zm0-1.221c.694 0 1.242-.218 1.644-.652.412-.445.635-1.08.667-1.905.011-.108.017-.314.017-.618s-.006-.51-.017-.62c-.032-.824-.255-1.454-.667-1.888-.402-.445-.95-.667-1.645-.667-.694 0-1.248.222-1.66.667-.402.434-.619 1.064-.652 1.889l-.016.619.016.618c.033.825.25 1.46.652 1.905.412.434.966.652 1.66.652zm5.605 1.058a.41.41 0 0 1-.277-.098.41.41 0 0 1-.098-.277V6.562a.35.35 0 0 1 .098-.26.377.377 0 0 1 .277-.115h.684c.108 0 .195.038.26.114a.352.352 0 0 1 .098.26v.554c.586-.727 1.378-1.09 2.377-1.09 1.194 0 2.04.499 2.54 1.497.26-.456.63-.82 1.107-1.09a3.296 3.296 0 0 1 1.628-.408c.89 0 1.618.304 2.182.912s.847 1.487.847 2.638v4.705a.377.377 0 0 1-.114.277.352.352 0 0 1-.26.098h-.7a.41.41 0 0 1-.278-.098.41.41 0 0 1-.097-.277V9.72c0-.868-.18-1.487-.538-1.856-.358-.38-.83-.57-1.416-.57-.521 0-.972.196-1.351.587-.37.38-.554.993-.554 1.84v4.558a.377.377 0 0 1-.114.277.352.352 0 0 1-.26.098h-.717a.41.41 0 0 1-.277-.098.41.41 0 0 1-.097-.277V9.72c0-.857-.19-1.476-.57-1.856-.37-.38-.83-.57-1.384-.57-.521 0-.972.19-1.352.57-.369.38-.553.993-.553 1.84v4.575a.377.377 0 0 1-.114.277.352.352 0 0 1-.26.098zm13.802 0a.412.412 0 0 1-.277-.098.41.41 0 0 1-.098-.277V6.562a.35.35 0 0 1 .098-.26.378.378 0 0 1 .277-.115h.684c.109 0 .195.038.26.114a.352.352 0 0 1 .098.26v.554c.586-.727 1.379-1.09 2.377-1.09 1.194 0 2.041.499 2.54 1.497.26-.456.63-.82 1.107-1.09a3.296 3.296 0 0 1 1.629-.408c.89 0 1.617.304 2.181.912.565.608.847 1.487.847 2.638v4.705a.373.373 0 0 1-.114.277.351.351 0 0 1-.26.098h-.7a.413.413 0 0 1-.277-.098.41.41 0 0 1-.098-.277V9.72c0-.868-.18-1.487-.537-1.856-.359-.38-.83-.57-1.417-.57-.521 0-.971.196-1.351.587-.37.38-.554.993-.554 1.84v4.558a.373.373 0 0 1-.114.277.351.351 0 0 1-.26.098h-.717a.412.412 0 0 1-.277-.098.41.41 0 0 1-.097-.277V9.72c0-.857-.19-1.476-.57-1.856-.369-.38-.83-.57-1.384-.57-.521 0-.971.19-1.352.57-.368.38-.553.993-.553 1.84v4.575a.377.377 0 0 1-.114.277.351.351 0 0 1-.26.098zm16.782.163c-1.107 0-1.992-.342-2.654-1.026-.662-.695-1.026-1.64-1.091-2.833l-.016-.554.016-.537c.065-1.172.429-2.106 1.09-2.8.663-.695 1.548-1.043 2.655-1.043 1.194 0 2.116.38 2.768 1.14.662.76.993 1.791.993 3.094v.293a.38.38 0 0 1-.114.277.352.352 0 0 1-.261.097h-5.65v.147c.033.705.25 1.308.652 1.807.401.5.934.75 1.596.75.51 0 .922-.099 1.237-.294.326-.206.57-.418.733-.635.097-.13.173-.206.228-.228a.574.574 0 0 1 .276-.049h.717c.097 0 .179.027.244.082a.25.25 0 0 1 .114.211c0 .24-.147.527-.44.863s-.71.63-1.253.88c-.532.238-1.146.358-1.84.358zm2.279-4.999V9.77c0-.76-.206-1.378-.618-1.856-.413-.477-.967-.716-1.661-.716-.706 0-1.26.239-1.661.716-.401.478-.602 1.096-.602 1.856v.05zm3.185 4.836a.413.413 0 0 1-.277-.098.41.41 0 0 1-.097-.277V6.578c0-.109.032-.2.097-.277a.378.378 0 0 1 .277-.114h.684c.12 0 .212.038.277.114a.348.348 0 0 1 .114.277v.716c.445-.738 1.199-1.107 2.263-1.107h.635c.12 0 .212.033.277.098.065.065.097.157.097.277v.602a.41.41 0 0 1-.097.277.374.374 0 0 1-.277.098h-.928c-.597 0-1.069.173-1.417.52-.336.348-.504.82-.504 1.417v4.803a.38.38 0 0 1-.114.277.413.413 0 0 1-.277.098zm8.323.163c-1.16 0-2.067-.326-2.719-.977-.651-.662-.993-1.585-1.025-2.768l-.017-.651.017-.652c.032-1.183.374-2.1 1.025-2.751.652-.663 1.559-.994 2.719-.994.782 0 1.439.142 1.971.424.543.271.944.613 1.204 1.026.272.412.419.824.44 1.237.011.098-.027.185-.114.26a.359.359 0 0 1-.26.114h-.717c-.108 0-.19-.021-.244-.065a.899.899 0 0 1-.163-.276c-.195-.532-.466-.907-.814-1.124-.336-.228-.765-.342-1.286-.342-.684 0-1.226.212-1.628.635-.402.423-.619 1.07-.652 1.938l-.016.57.016.57c.033.868.25 1.514.652 1.937s.944.635 1.628.635c.532 0 .966-.109 1.302-.326.337-.228.603-.608.798-1.14a.687.687 0 0 1 .163-.26c.054-.054.136-.081.244-.081h.717c.097 0 .184.038.26.114.087.076.125.163.114.26-.021.402-.168.809-.44 1.221-.26.413-.661.76-1.204 1.042-.532.283-1.189.424-1.971.424zm8.268 0c-1.107 0-1.991-.342-2.654-1.026-.661-.695-1.025-1.64-1.09-2.833l-.017-.554.017-.537c.065-1.172.429-2.106 1.09-2.8.663-.695 1.547-1.043 2.654-1.043 1.195 0 2.117.38 2.768 1.14.663.76.994 1.791.994 3.094v.293a.38.38 0 0 1-.114.277.352.352 0 0 1-.261.097h-5.65v.147c.033.705.25 1.308.652 1.807.402.5.933.75 1.595.75.511 0 .923-.099 1.238-.294.325-.206.569-.418.732-.635.098-.13.175-.206.228-.228a.581.581 0 0 1 .277-.049h.716a.37.37 0 0 1 .245.082.25.25 0 0 1 .114.211c0 .24-.147.527-.44.863s-.711.63-1.254.88c-.531.238-1.144.358-1.84.358zm2.28-4.999V9.77c0-.76-.206-1.378-.619-1.856-.412-.477-.965-.716-1.661-.716-.705 0-1.258.239-1.66.716-.402.478-.603 1.096-.603 1.856v.05z"/><path fill="#b6a4fb" fill-rule="evenodd" d="M77.34 17.91H47.828l-5.495 7.327 5.495 7.327h26.255zm1.628 0L75.71 32.564h5.09l5.495-7.327L80.8 17.91z" clip-rule="evenodd"/><path fill="#fff" d="M48.773 28.494a.226.226 0 0 1-.166-.069.226.226 0 0 1-.068-.166v-6.36c0-.071.02-.13.058-.176a.238.238 0 0 1 .176-.068h.899c.071 0 .13.023.176.068a.238.238 0 0 1 .068.176v2.511h2.853V21.9c0-.072.022-.131.068-.177s.101-.068.166-.068h.909a.21.21 0 0 1 .166.068.238.238 0 0 1 .068.176v6.36c0 .065-.023.12-.068.166a.207.207 0 0 1-.166.068h-.909c-.065 0-.12-.022-.166-.068s-.068-.1-.068-.166v-2.608h-2.853v2.608c0 .065-.023.12-.068.166a.238.238 0 0 1-.176.068zm8.25 0a.226.226 0 0 1-.166-.069.226.226 0 0 1-.069-.166v-5.383h-1.807c-.065 0-.12-.023-.166-.068s-.068-.104-.068-.176v-.733c0-.071.02-.13.058-.176a.238.238 0 0 1 .176-.068h4.992c.072 0 .13.023.176.068s.068.105.068.176v.733c0 .072-.022.13-.068.176s-.104.068-.176.068h-1.797v5.383c0 .065-.023.12-.069.166a.207.207 0 0 1-.166.068zm4.03 0c-.066 0-.121-.023-.167-.069s-.068-.1-.068-.166v-6.36c0-.071.02-.13.058-.176a.238.238 0 0 1 .176-.068h.792c.123 0 .22.062.293.186l1.885 3.497 1.885-3.497c.072-.124.17-.186.294-.186h.781c.072 0 .13.023.176.068s.068.105.068.176v6.36a.24.24 0 0 1-.068.176.26.26 0 0 1-.176.059h-.84c-.065 0-.12-.023-.166-.069s-.068-.1-.068-.166v-4.2l-1.358 2.578c-.072.144-.18.215-.323.215h-.41c-.137 0-.248-.071-.332-.215l-1.358-2.579v4.201c0 .065-.023.12-.069.166a.207.207 0 0 1-.166.068zm7.536 0c-.065 0-.12-.023-.166-.069s-.068-.1-.068-.166v-6.37a.21.21 0 0 1 .068-.166.226.226 0 0 1 .166-.068h.919a.21.21 0 0 1 .166.068.21.21 0 0 1 .068.166v5.432h3.097c.072 0 .13.023.176.069s.068.1.068.166v.703c0 .065-.023.12-.068.166s-.104.068-.176.068z"/></g></svg>