<svg xmlns="http://www.w3.org/2000/svg" width="333" height="96" fill="none"><g fill="#fff"><path d="M77.904 45.478a1.224 1.224 0 0 0-1.201-1.104H46.774a4.663 4.663 0 0 0-3.963 2.4 4.197 4.197 0 0 0 0 4.176 1.296 1.296 0 0 0 1.08.696h32.884a1.226 1.226 0 0 0 1.201-1.104v-2.4c0-.672 0-1.752-.072-2.664z" opacity=".88"/><path d="M51.409 51.55h-7.59a1.347 1.347 0 0 1-1.057-.648l13.955 24.696a1.2 1.2 0 0 0 1.057.6c.135.023.273.023.409 0a29.367 29.367 0 0 0 4.587-2.112 1.176 1.176 0 0 0 .432-1.632z" opacity=".72"/><path d="M57.691 76.414h.035c.128.023.258.023.385 0l.768-.312.697-.288a28.442 28.442 0 0 0 3.099-1.512c4.683-2.636 8.574-6.477 11.269-11.124s4.095-9.93 4.055-15.3c0-.888-.048-1.584-.12-2.4a1.2 1.2 0 0 0-1.177-1.104h-4.804a1.202 1.202 0 0 0-.888.408 1.127 1.127 0 0 0-.289.912v2.4a22.786 22.786 0 0 1-10.569 19.2c-.127.082-.252.171-.377.26-.07.051-.142.103-.214.153a1.369 1.369 0 0 0-.343.117 22.593 22.593 0 0 1-11.241 2.952c-6.048-.013-11.845-2.419-16.122-6.692s-6.685-10.065-6.697-16.108c.012-6.043 2.42-11.835 6.697-16.108s10.074-6.68 16.122-6.692a22.905 22.905 0 0 1 11.24 2.952c.18.114.389.172.601.168h.264a1.225 1.225 0 0 0 .793-.576l2.402-4.176a1.223 1.223 0 0 0-.432-1.656A30.092 30.092 0 0 0 48.025 18a30.085 30.085 0 0 0-21.217 8.8A30.035 30.035 0 0 0 18 48a30.035 30.035 0 0 0 8.808 21.2A30.085 30.085 0 0 0 48.025 78c3.3.003 6.564-.537 9.666-1.586zm57.883-42.461V67.92h-5.973V33.954H100.5v-5.615h24.15v5.615zm29.508 8.998h5.794v24.97h-5.794v-2.614c-2.375 2.221-4.931 3.332-7.665 3.332-3.453 0-6.307-1.247-8.563-3.743-2.239-2.546-3.358-5.725-3.358-9.537 0-3.742 1.119-6.862 3.358-9.357s5.042-3.743 8.409-3.743c2.906 0 5.512 1.196 7.819 3.59zm-13.69 12.408c0 2.393.641 4.342 1.923 5.846 1.316 1.52 2.974 2.281 4.974 2.281 2.136 0 3.862-.735 5.178-2.204 1.316-1.521 1.974-3.453 1.974-5.794s-.658-4.273-1.974-5.794c-1.316-1.487-3.025-2.23-5.127-2.23-1.983 0-3.641.751-4.974 2.255-1.316 1.522-1.974 3.402-1.974 5.64zm32.533-12.408v24.97h-5.768v-24.97zm-6.64-10.383c0-1.008.368-1.88 1.103-2.614.735-.735 1.615-1.103 2.64-1.103 1.043 0 1.932.368 2.667 1.102.734.718 1.102 1.599 1.102 2.641a3.635 3.635 0 0 1-1.102 2.666c-.718.735-1.598 1.103-2.641 1.103s-1.931-.368-2.666-1.103c-.735-.735-1.103-1.632-1.103-2.691zM177 24.621v43.3h-5.768v-43.3zm33.931 23.181h16.614v1.336c0 3.038-.356 5.728-1.067 8.068-.695 2.165-1.867 4.19-3.516 6.076-3.732 4.226-8.48 6.34-14.244 6.34-5.625 0-10.442-2.044-14.453-6.13-4.01-4.104-6.015-9.028-6.015-14.773 0-5.867 2.04-10.844 6.12-14.93 4.079-4.104 9.044-6.156 14.895-6.156 3.142 0 6.076.646 8.802 1.939 2.604 1.292 5.164 3.387 7.681 6.286l-4.322 4.165c-3.299-4.418-7.318-6.627-12.057-6.627-4.253 0-7.821 1.475-10.703 4.427-2.882 2.898-4.322 6.53-4.322 10.896 0 4.505 1.605 8.216 4.817 11.132 3.003 2.707 6.258 4.06 9.765 4.06 2.986 0 5.668-1.013 8.047-3.038 2.378-2.043 3.706-4.488 3.984-7.335h-10.026zm23.15-4.452h5.86v2.278c1.076-1.135 2.031-1.912 2.864-2.331.851-.437 1.858-.655 3.021-.655 1.545 0 3.159.506 4.843 1.52l-2.682 5.395c-1.111-.803-2.196-1.205-3.255-1.205-3.194 0-4.791 2.427-4.791 7.282V68.86h-5.86zm26.64 0v25.51h-5.859V43.35zm-6.744-10.609c0-1.03.373-1.92 1.119-2.672.747-.75 1.641-1.126 2.682-1.126a3.68 3.68 0 0 1 2.709 1.126c.746.734 1.119 1.633 1.119 2.698s-.373 1.973-1.119 2.724c-.729.751-1.624 1.127-2.683 1.127s-1.961-.376-2.708-1.127c-.746-.75-1.119-1.667-1.119-2.75zm32.863-8.12h5.885v44.24h-5.885V66.19c-2.309 2.27-4.922 3.405-7.838 3.405-3.473 0-6.354-1.275-8.646-3.824-2.274-2.602-3.411-5.85-3.411-9.744 0-3.807 1.137-6.985 3.411-9.534 2.257-2.567 5.095-3.851 8.515-3.851 2.969 0 5.625 1.222 7.969 3.667zm-13.906 31.406c0 2.444.651 4.435 1.953 5.972 1.337 1.554 3.021 2.331 5.052 2.331 2.17 0 3.923-.75 5.26-2.253 1.337-1.554 2.005-3.527 2.005-5.92 0-2.392-.668-4.365-2.005-5.919-1.337-1.52-3.073-2.279-5.208-2.279-2.014 0-3.698.769-5.052 2.305-1.337 1.554-2.005 3.475-2.005 5.763zm41.925-8.33-4.843 2.593c-.764-1.571-1.71-2.357-2.839-2.357a1.92 1.92 0 0 0-1.38.55c-.382.35-.573.803-.573 1.362 0 .978 1.129 1.947 3.386 2.908 3.107 1.344 5.199 2.584 6.275 3.72 1.077 1.134 1.615 2.662 1.615 4.583 0 2.462-.903 4.523-2.708 6.181-1.754 1.572-3.872 2.358-6.354 2.358-4.253 0-7.265-2.087-9.036-6.26l5-2.332c.694 1.223 1.224 2 1.588 2.332.712.663 1.563.995 2.552.995 1.979 0 2.969-.908 2.969-2.724 0-1.048-.764-2.026-2.292-2.934-.59-.296-1.18-.585-1.771-.864-.59-.28-1.189-.568-1.796-.864-1.702-.839-2.9-1.677-3.594-2.515-.885-1.065-1.328-2.436-1.328-4.112 0-2.218.755-4.052 2.265-5.5 1.545-1.45 3.42-2.175 5.625-2.175 3.247 0 5.66 1.685 7.239 5.055z"/></g></svg>