<svg xmlns="http://www.w3.org/2000/svg" width="127" height="44" fill="none"><clipPath id="a"><path d="M0 0h127v43.688H0z"/></clipPath><g clip-path="url(#a)"><g fill="#0ed7b5"><path d="M41.865 0H1.702C.749 0 0 .749 0 1.702v24.37c0 .953.749 1.702 1.702 1.702h40.163c.953 0 1.702-.749 1.702-1.702V1.702C43.567.749 42.818 0 41.865 0zm-1.702 24.37H3.404V3.404h36.76zm-2.178 8.305H5.582c-.953 0-1.702.75-1.702 1.702 0 .953.749 1.702 1.702 1.702h32.403c.953 0 1.702-.749 1.702-1.702s-.749-1.702-1.702-1.702zm0 7.489H5.582c-.953 0-1.702.748-1.702 1.701s.749 1.702 1.702 1.702h32.403c.953 0 1.702-.749 1.702-1.702s-.749-1.701-1.702-1.701z"/><path fill-rule="evenodd" d="M21.784 6.127c-3.45 0-5.605 1.664-6.467 4.992 1.293-1.664 2.802-2.288 4.527-1.872.983.237 1.687.926 2.465 1.688 1.268 1.242 2.736 2.68 5.942 2.68 3.449 0 5.604-1.664 6.467-4.992-1.294 1.664-2.803 2.288-4.527 1.872-.984-.238-1.687-.926-2.466-1.689-1.268-1.242-2.736-2.68-5.941-2.68zm-6.467 7.488c-3.45 0-5.605 1.664-6.467 4.992 1.293-1.664 2.802-2.288 4.527-1.872.984.237 1.687.926 2.465 1.688 1.268 1.242 2.736 2.68 5.942 2.68 3.449 0 5.604-1.664 6.467-4.992-1.294 1.664-2.803 2.288-4.527 1.872-.984-.237-1.688-.926-2.466-1.689-1.268-1.242-2.736-2.68-5.941-2.68z" clip-rule="evenodd"/></g><path fill="#fff" d="m57.303 6.039-.228 1.707h-2.926v9.526h-2.162V7.746h-3.024V6.039zm6.884 8.957c0 .336.048.585.146.748.108.152.276.27.504.358l-.44 1.381c-.487-.043-.888-.162-1.202-.357-.304-.195-.537-.494-.7-.894a2.804 2.804 0 0 1-1.105.975 3.368 3.368 0 0 1-1.463.309c-.856 0-1.533-.244-2.032-.732-.498-.487-.747-1.127-.747-1.918 0-.932.336-1.642 1.008-2.13.682-.498 1.652-.747 2.91-.747h1.072V11.5c0-.553-.13-.937-.39-1.154-.25-.228-.656-.341-1.22-.341-.628 0-1.386.151-2.275.455l-.488-1.415c1.073-.411 2.114-.617 3.122-.617 2.2 0 3.3.986 3.3 2.958zm-3.707 1.008c.705 0 1.257-.352 1.658-1.057v-1.74h-.861c-1.344 0-2.016.5-2.016 1.497 0 .411.103.731.309.959s.51.341.91.341zm8.305-7.331v8.599h-2.08v-8.6zM67.73 4.316c.39 0 .704.125.942.374.25.238.374.536.374.894s-.124.656-.374.894c-.238.238-.552.358-.942.358-.38 0-.694-.12-.943-.358a1.213 1.213 0 0 1-.358-.894c0-.358.12-.656.358-.894.25-.25.563-.374.943-.374zm5.595 13.2c-.66 0-1.18-.19-1.56-.57-.369-.39-.553-.937-.553-1.641V5.226L73.291 5v10.24c0 .402.163.602.489.602.162 0 .325-.027.487-.08l.44 1.462a3.328 3.328 0 0 1-1.383.293zm13.264-8.843-1.87 8.599h-2.6l-1.3-6.746-1.334 6.746h-2.552l-1.902-8.6h2.08l1.204 7.072 1.495-7.071h2.13l1.365 7.07 1.284-7.07zm3.517 0v8.599h-2.08v-8.6zM89.05 4.316c.39 0 .704.125.943.374.249.238.373.536.373.894s-.124.656-.373.894c-.239.238-.553.358-.943.358-.38 0-.694-.12-.943-.358a1.213 1.213 0 0 1-.358-.894c0-.358.12-.656.358-.894.25-.25.563-.374.943-.374zm8.148 4.113c.77 0 1.365.233 1.788.699.433.455.65 1.094.65 1.918v6.226h-2.08V11.37c0-.51-.093-.867-.277-1.073-.173-.206-.434-.309-.78-.309a1.55 1.55 0 0 0-.976.342c-.281.216-.558.536-.829.959v5.982h-2.08v-8.6h1.804l.162 1.122c.705-.91 1.577-1.365 2.618-1.365zm12.095-3.203v12.046h-1.837l-.146-1.09a2.988 2.988 0 0 1-1.041.976 2.77 2.77 0 0 1-1.414.358c-1.051 0-1.859-.407-2.422-1.22-.564-.812-.845-1.918-.845-3.316 0-.877.14-1.658.422-2.34.282-.694.683-1.236 1.203-1.626a3.02 3.02 0 0 1 1.837-.585c.824 0 1.544.309 2.162.926V5zm-3.853 10.713c.369 0 .694-.087.976-.26.281-.184.547-.466.796-.845V10.9a2.917 2.917 0 0 0-.764-.683 1.655 1.655 0 0 0-.878-.228c-.552 0-.991.25-1.317.748-.314.488-.471 1.23-.471 2.227 0 1.062.141 1.826.423 2.292.281.455.693.683 1.235.683zm-48.137 9.743-.227 1.707H54.15v9.526h-2.162v-9.526h-3.024v-1.707zm7.504 6.73c0 .108-.016.39-.049.845H59.36c.065.835.282 1.43.65 1.788.369.358.857.537 1.463.537.38 0 .737-.06 1.073-.18a5.31 5.31 0 0 0 1.073-.584l.862 1.186c-.954.77-2.016 1.155-3.186 1.155-1.312 0-2.325-.401-3.04-1.203-.705-.802-1.057-1.897-1.057-3.284 0-.878.152-1.664.455-2.357.304-.705.743-1.252 1.317-1.642.574-.401 1.257-.602 2.048-.602 1.203 0 2.135.385 2.796 1.155.661.758.992 1.82.992 3.186zm-2.065-.602c0-1.506-.558-2.26-1.674-2.26-.51 0-.91.19-1.203.57-.282.368-.45.964-.504 1.788h3.381zm13.051-3.739c.694 0 1.247.239 1.658.716.412.466.618 1.1.618 1.902v6.226h-2.08v-5.901c0-.921-.315-1.382-.944-1.382-.335 0-.628.108-.877.325-.239.206-.488.531-.748.975v5.983h-2.08v-5.901c0-.921-.315-1.382-.944-1.382-.346 0-.644.108-.894.325-.238.206-.487.531-.747.975v5.983h-2.081v-8.6h1.804l.163 1.122c.65-.91 1.479-1.366 2.487-1.366.498 0 .926.13 1.284.39.369.25.634.602.797 1.057.346-.466.726-.824 1.138-1.073a2.792 2.792 0 0 1 1.446-.374zm9.146 0c1.084 0 1.886.396 2.406 1.187.52.791.78 1.902.78 3.333 0 .888-.135 1.68-.406 2.373-.26.683-.65 1.22-1.17 1.61-.51.39-1.117.584-1.821.584-.91 0-1.631-.314-2.162-.942v4.015l-2.081.227V28.315h1.82l.114 1.057a3.37 3.37 0 0 1 1.154-.976 3.014 3.014 0 0 1 1.366-.325zm-.797 7.494c1.203 0 1.805-.986 1.805-2.958 0-1.051-.136-1.81-.407-2.276-.27-.466-.677-.7-1.219-.7-.347 0-.672.11-.975.326a2.678 2.678 0 0 0-.78.845v3.87c.4.595.926.893 1.576.893zm8.059 1.593c-.661 0-1.182-.19-1.56-.569-.37-.39-.554-.937-.554-1.641v-10.08l2.081-.227v10.242c0 .4.163.601.488.601.162 0 .325-.027.487-.081l.44 1.463a3.328 3.328 0 0 1-1.382.293zm9.039-2.52c0 .337.048.586.146.748.108.152.276.271.504.358l-.439 1.382c-.488-.043-.889-.163-1.203-.358-.303-.195-.536-.493-.699-.894a2.805 2.805 0 0 1-1.105.976 3.368 3.368 0 0 1-1.463.309c-.857 0-1.534-.244-2.032-.732-.499-.488-.748-1.127-.748-1.918 0-.932.336-1.642 1.008-2.13.683-.498 1.652-.748 2.91-.748h1.072v-.487c0-.553-.13-.938-.39-1.154-.249-.228-.655-.342-1.219-.342-.628 0-1.387.152-2.276.455l-.487-1.414c1.073-.412 2.113-.618 3.12-.618 2.201 0 3.301.987 3.301 2.959zm-3.707 1.009c.705 0 1.257-.353 1.658-1.057v-1.74h-.861c-1.344 0-2.016.5-2.016 1.496 0 .412.103.732.309.96s.51.34.91.34zm11.15.861c-.303.217-.645.38-1.024.488a4.01 4.01 0 0 1-1.138.162c-.845-.01-1.49-.249-1.934-.715-.434-.477-.651-1.176-.651-2.097v-4.535h-1.349v-1.496h1.349v-1.902l2.081-.244v2.146h2l-.212 1.496h-1.788v4.486c0 .423.071.726.212.91.151.185.384.277.699.277.314 0 .655-.103 1.024-.309zm7.956-4.096c0 .108-.016.39-.049.845h-5.397c.065.835.282 1.43.65 1.788.369.358.856.537 1.463.537.38 0 .737-.06 1.073-.18a5.31 5.31 0 0 0 1.073-.584l.862 1.186c-.954.77-2.016 1.155-3.186 1.155-1.312 0-2.325-.401-3.04-1.203-.705-.802-1.057-1.897-1.057-3.284 0-.878.152-1.664.455-2.357.304-.705.743-1.252 1.317-1.642.574-.401 1.257-.602 2.048-.602 1.203 0 2.135.385 2.796 1.155.661.758.992 1.82.992 3.186zm-2.065-.602c0-1.506-.558-2.26-1.674-2.26-.509 0-.91.19-1.203.57-.282.368-.45.964-.504 1.788h3.381zm6.646-3.739c1.16 0 2.179.342 3.056 1.024l-.812 1.22c-.737-.466-1.458-.7-2.162-.7-.412 0-.732.082-.959.245a.707.707 0 0 0-.342.617c0 .195.049.358.146.488.098.13.271.255.521.374.26.108.639.233 1.138.374.932.249 1.62.58 2.064.991.455.412.683.986.683 1.723 0 .857-.347 1.528-1.041 2.016-.693.477-1.555.715-2.584.715a5.53 5.53 0 0 1-1.935-.325 4.688 4.688 0 0 1-1.495-.894l1.04-1.17c.748.563 1.528.845 2.341.845.466 0 .834-.092 1.105-.276a.866.866 0 0 0 .423-.764c0-.25-.054-.445-.163-.585-.097-.152-.281-.282-.552-.39-.26-.12-.672-.26-1.236-.423-.878-.239-1.522-.57-1.934-.992-.412-.433-.618-.97-.618-1.61 0-.476.136-.904.407-1.283.281-.38.671-.678 1.17-.894.509-.217 1.089-.326 1.739-.326z"/></g></svg>