<svg xmlns="http://www.w3.org/2000/svg" width="161" height="38" fill="none"><g clip-path="url(#a)"><path fill="#625DF5" d="M32.457 13.998V25.94a7.054 7.054 0 0 1-3.299 5.972l-9.603 6.04a.309.309 0 0 1-.473-.259v-4.227c0-.694.345-1.339.922-1.726l6.125-4.086A3.079 3.079 0 0 0 27.5 25.1v-8.233c0-.657.35-1.266.922-1.597l3.115-1.794a.616.616 0 0 1 .921.534v-.012Z"/><path fill="#625DF5" d="m31.714 10.423-13.565 7.833a3.063 3.063 0 0 0-1.536 2.66v16.502c0 .24-.258.388-.461.265l-12.57-7.311A7.195 7.195 0 0 1 0 24.148v-9.99A8.422 8.422 0 0 1 4.215 6.86L15.655.25a1.831 1.831 0 0 1 1.842 0L20.36 1.9a.923.923 0 0 1 0 1.598L6.703 11.38a3.063 3.063 0 0 0-1.536 2.66v9.499c0 1.1.584 2.113 1.536 2.66l4.528 2.611a.142.142 0 0 0 .215-.123V19.25c0-1.916 1.02-3.68 2.678-4.638l13.123-7.575a1.837 1.837 0 0 1 1.96.073l2.562 1.751a.923.923 0 0 1-.061 1.56h.006Z"/><path fill="#fff" d="M47.232 8.717h4.38v11.899c0 .977.134 1.847.402 2.612a5.057 5.057 0 0 0 1.188 1.92c.535.526 1.193.927 1.977 1.203.783.268 1.695.401 2.736.401 1.032 0 1.94-.133 2.723-.4.792-.277 1.45-.678 1.976-1.203a4.974 4.974 0 0 0 1.202-1.921c.267-.765.4-1.636.4-2.612v-11.9h4.382v12.425c0 1.419-.24 2.709-.719 3.87a8.217 8.217 0 0 1-2.087 2.985c-.912.83-2.031 1.47-3.358 1.92-1.317.452-2.824.678-4.52.678-1.694 0-3.205-.226-4.532-.677-1.318-.452-2.432-1.092-3.345-1.921a8.217 8.217 0 0 1-2.086-2.985c-.48-1.161-.72-2.451-.72-3.87V8.717Zm24.392 0h4.41v21.6h-4.41v-21.6Zm6.468 13.516c0-1.3.245-2.47.733-3.51a7.862 7.862 0 0 1 2.017-2.681c.867-.747 1.89-1.318 3.069-1.714 1.188-.405 2.473-.608 3.855-.608.59 0 1.17.037 1.742.11.58.074 1.133.175 1.658.304.535.13 1.032.286 1.493.47.47.175.884.369 1.244.58V7.39h4.09v22.928h-4.09v-1.534c-.36.248-.784.483-1.272.705-.488.22-1.013.414-1.575.58-.562.166-1.147.295-1.755.387-.6.101-1.194.152-1.783.152-1.382 0-2.654-.203-3.815-.608-1.151-.405-2.142-.977-2.971-1.714a7.91 7.91 0 0 1-1.949-2.64c-.46-1.031-.69-2.17-.69-3.413Zm4.298 0c0 .654.13 1.271.387 1.852.268.58.645 1.092 1.134 1.534a5.743 5.743 0 0 0 1.782 1.036c.7.25 1.484.374 2.35.374.553 0 1.105-.051 1.658-.152a9.882 9.882 0 0 0 1.59-.456 8.014 8.014 0 0 0 1.437-.705 5.997 5.997 0 0 0 1.175-.926v-5.653a7.388 7.388 0 0 0-1.313-.843 9.2 9.2 0 0 0-1.41-.566 8.883 8.883 0 0 0-1.451-.318 9.535 9.535 0 0 0-1.424-.11c-.94 0-1.778.128-2.515.386-.728.249-1.345.594-1.852 1.037-.497.442-.88.963-1.147 1.561a4.728 4.728 0 0 0-.4 1.949Zm18.077-.125c0-1.105.226-2.16.677-3.164a8.027 8.027 0 0 1 1.949-2.681c.848-.774 1.884-1.392 3.11-1.852 1.234-.461 2.635-.691 4.201-.691 1.557 0 2.957.235 4.201.704 1.253.461 2.313 1.097 3.179 1.908a8.18 8.18 0 0 1 2.004 2.86 8.85 8.85 0 0 1 .705 3.525c0 .156-.005.327-.014.51 0 .176-.009.337-.028.485h-15.423c.175.488.456.935.843 1.34.396.406.889.756 1.479 1.05a8.572 8.572 0 0 0 2.045.692 13.04 13.04 0 0 0 2.571.235c.939 0 1.874-.097 2.805-.29.931-.203 1.82-.457 2.667-.76l1.382 3.123a17.89 17.89 0 0 1-1.63.663 15.52 15.52 0 0 1-1.714.47c-.59.12-1.212.212-1.866.276a20.43 20.43 0 0 1-2.045.097c-1.834 0-3.441-.221-4.823-.663-1.383-.443-2.539-1.046-3.469-1.81-.931-.766-1.631-1.664-2.101-2.696a7.94 7.94 0 0 1-.705-3.33Zm15.686-1.589a3.92 3.92 0 0 0-.691-1.257 4.243 4.243 0 0 0-1.147-1.023 5.776 5.776 0 0 0-1.603-.691 7.604 7.604 0 0 0-2.004-.249 7.96 7.96 0 0 0-2.115.263 6.44 6.44 0 0 0-1.672.704c-.479.295-.88.636-1.202 1.023a3.995 3.995 0 0 0-.691 1.23h11.125Zm5.998 1.686c0-1.197.217-2.312.65-3.344a7.556 7.556 0 0 1 1.921-2.695c.847-.765 1.879-1.364 3.095-1.797 1.226-.433 2.621-.65 4.188-.65a17.268 17.268 0 0 1 4.049.484c.645.148 1.248.327 1.81.54a8.322 8.322 0 0 1 1.465.676l-1.893 3.082a13.747 13.747 0 0 0-2.543-.912 10.151 10.151 0 0 0-2.418-.29c-.94 0-1.783.125-2.529.373-.747.24-1.382.58-1.908 1.023a4.41 4.41 0 0 0-1.188 1.548 4.636 4.636 0 0 0-.401 1.935c0 .7.143 1.35.428 1.948.295.59.705 1.101 1.23 1.534.535.424 1.175.76 1.921 1.01.756.239 1.594.358 2.516.358a9.346 9.346 0 0 0 2.861-.428 11.156 11.156 0 0 0 2.515-1.147l1.893 3.082c-.488.295-1.018.571-1.589.83a15.136 15.136 0 0 1-3.884 1.078c-.709.11-1.446.165-2.211.165-1.557 0-2.953-.212-4.187-.636-1.235-.424-2.281-1.009-3.138-1.755a7.798 7.798 0 0 1-1.976-2.667c-.451-1.023-.677-2.138-.677-3.345ZM142.467 7.39h4.09v13.544l7.629-6.924h6.261l-8.527 7.629 9.066 8.679h-6.137l-6.067-5.874-2.225 1.99v3.884h-4.09V7.39Z"/></g><defs><clipPath id="a"><path fill="#fff" d="M0 0h161v38H0z"/></clipPath></defs></svg>