<svg xmlns="http://www.w3.org/2000/svg" width="37" height="37" fill="none"><path fill="#fff" d="m33.561 21.468-2.194-1.35c-.562-.394-1.35-.17-1.743.393-.394.62-.169 1.35.393 1.744l1.463.956-13.331 8.382L4.76 23.21l1.463-.956c.619-.394.787-1.181.394-1.744-.394-.618-1.182-.787-1.744-.393l-2.194 1.35c-.562.393-.956 1.012-.956 1.687s.337 1.35.956 1.688l14.4 9.056c.338.225.675.281 1.069.281.393 0 .731-.112 1.069-.281l14.343-9c.563-.394.956-1.013.956-1.688s-.337-1.35-.956-1.743Z"/><path fill="#fff" d="m20.117 20.455-1.968 1.181L16.18 20.4c-.619-.394-1.35-.169-1.744.394-.393.618-.168 1.35.394 1.743l2.644 1.632c.225.112.45.168.675.168.225 0 .45-.056.675-.168l2.643-1.632c.62-.393.788-1.18.394-1.743-.393-.563-1.181-.732-1.744-.338ZM7.743 18.093l3.712 2.362c.225.113.45.169.675.169.394 0 .844-.225 1.069-.619.393-.619.168-1.35-.394-1.744L9.093 15.9c-.62-.394-1.35-.169-1.744.394-.394.675-.225 1.462.394 1.8Zm-2.7-1.913c.393 0 .843-.225 1.068-.619.394-.618.169-1.35-.393-1.743l-.9-.563.9-.562c.618-.394.787-1.182.393-1.744-.393-.619-1.181-.788-1.743-.394l-2.644 1.631a1.206 1.206 0 0 0-.619 1.07c0 .45.225.843.619 1.068l2.644 1.631c.168.169.393.225.675.225Zm3.375-5.456c.225 0 .45-.056.675-.169l3.712-2.362c.619-.394.787-1.182.394-1.744-.394-.619-1.181-.788-1.744-.394L7.743 8.418c-.62.393-.788 1.181-.394 1.743a1.28 1.28 0 0 0 1.069.563Zm7.762-4.669 1.969-1.237 1.968 1.237c.226.113.45.169.675.169.394 0 .844-.225 1.07-.619.393-.619.168-1.35-.394-1.744l-2.644-1.63a1.185 1.185 0 0 0-1.35 0L14.83 3.86c-.619.394-.787 1.182-.394 1.744.394.563 1.181.844 1.744.45Zm7.312 2.138 3.713 2.362c.225.113.45.169.675.169.394 0 .844-.225 1.069-.619.393-.619.168-1.35-.394-1.744L24.843 6c-.563-.394-1.35-.169-1.744.394a1.286 1.286 0 0 0 .393 1.8Zm11.082 3.993-2.644-1.63c-.563-.395-1.35-.17-1.744.393-.393.619-.169 1.35.394 1.744l.9.562-.9.563c-.619.393-.787 1.18-.394 1.743.225.394.675.62 1.069.62.225 0 .45-.057.675-.17l2.644-1.63c.394-.226.619-.62.619-1.07 0-.45-.225-.9-.62-1.125Zm-10.406 8.438c.224 0 .45-.056.675-.169l3.712-2.362c.619-.394.788-1.181.394-1.744-.394-.619-1.182-.787-1.744-.394l-3.712 2.363c-.62.393-.788 1.181-.394 1.743.225.394.619.563 1.069.563Z"/></svg>